<?xml version="1.0" standalone="no"?>
<!DOCTYPE svg PUBLIC "-//W3C//DTD SVG 20010904//EN"
 "http://www.w3.org/TR/2001/REC-SVG-20010904/DTD/svg10.dtd">
<svg version="1.0" xmlns="http://www.w3.org/2000/svg"
 width="271.000000pt" height="271.000000pt" viewBox="0 0 271.000000 271.000000"
 preserveAspectRatio="xMidYMid meet">
<metadata>
Created by potrace 1.14, written by Peter Selinger 2001-2017
</metadata>
<g transform="translate(0.000000,271.000000) scale(0.100000,-0.100000)"
fill="#000000" stroke="none">
<path d="M1715 2073 c-500 -30 -911 -56 -913 -58 -2 -1 13 -35 32 -74 30 -59
40 -71 61 -71 35 0 1808 249 1813 255 8 8 -24 6 -993 -52z"/>
<path d="M11 2006 c9 -9 820 -145 817 -137 -2 4 -14 32 -27 63 l-24 56 -196 6
c-108 3 -281 9 -386 12 -104 4 -187 3 -184 0z"/>
<path d="M1043 1866 c-84 -12 -154 -24 -157 -27 -3 -3 102 -47 233 -97 l239
-93 139 86 c76 47 139 89 141 93 3 9 -368 63 -413 61 -16 -1 -98 -11 -182 -23z"/>
<path d="M740 1827 c-66 -7 -89 -12 -75 -18 26 -11 396 -81 401 -76 2 2 -40
21 -94 42 -53 21 -101 44 -105 52 -4 7 -13 12 -20 12 -7 -1 -55 -6 -107 -12z"/>
<path d="M1503 1716 c-73 -45 -137 -86 -142 -91 -5 -6 -12 -48 -16 -94 l-7
-85 104 96 c69 65 119 121 152 173 26 42 47 78 45 80 -2 2 -64 -34 -136 -79z"/>
<path d="M1080 1646 c0 -12 -3 -52 -6 -87 l-6 -64 26 31 c21 26 35 33 82 39
68 8 102 19 87 28 -13 8 -173 77 -179 77 -2 0 -4 -11 -4 -24z"/>
<path d="M1310 1603 c-1 -24 -33 -44 -86 -53 -118 -21 -117 -18 -19 -60 50
-22 96 -39 103 -40 7 0 12 12 12 28 0 15 3 51 6 80 5 36 3 52 -5 52 -6 0 -11
-3 -11 -7z"/>
<path d="M1089 1468 l-23 -32 48 -390 c54 -433 57 -458 62 -453 4 4 94 797 94
827 0 12 -23 27 -71 49 -40 17 -75 31 -80 31 -4 0 -18 -14 -30 -32z"/>
</g>
</svg>
